<!DOCTYPE svg PUBLIC "-//W3C//DTD SVG 1.1//EN" "http://www.w3.org/Graphics/SVG/1.1/DTD/svg11.dtd">
<svg xmlns="http://www.w3.org/2000/svg" version="1.1" width="41.248mm" height="18.388mm" viewBox="-1641340.0 913900.0 412480.0 183880.0">
            <title>Picture generated by PcbDraw </title>
            <desc>Picture generated by PcbDraw</desc>
        <defs><clipPath id="cut-off"><path d=" M 1640840.0 914400.0 L 1640840.0 1097280.0 L 1229360.0 1097280.0 L 1229360.0 914400.0 L 1640840.0 914400.0 " style="fill-rule: evenodd;"/></clipPath><mask id="pads-mask"><g style="fill:#ffffff; fill-opacity:0.0;  stroke:#ffffff; stroke-width:0.000000; stroke-opacity:1;  stroke-linecap:round; stroke-linejoin:round;">
<g style="fill:#ffffff; fill-opacity:1.0;  stroke:#ffffff; stroke-width:0.010000; stroke-opacity:1;  stroke-linecap:round; stroke-linejoin:round;">
<circle cx="1260070.000000" cy="1023840.000000" r="7500.000000"/> 
</g>
<g style="fill:#ffffff; fill-opacity:1.0;  stroke:#ffffff; stroke-width:0.010000; stroke-opacity:1;  stroke-linecap:round; stroke-linejoin:round;">
<circle cx="1260070.000000" cy="987840.000000" r="7500.000000"/> 
</g>
<g style="fill:#ffffff; fill-opacity:1.0;  stroke:#ffffff; stroke-width:0.010000; stroke-opacity:1;  stroke-linecap:round; stroke-linejoin:round;">
<path style="fill:#ffffff; fill-opacity:1.0;  stroke:#ffffff; stroke-width:0.010000; stroke-opacity:1;  stroke-linecap:round; stroke-linejoin:round;fill-rule:evenodd;" d="M 1325570.000000,979840.000000 1326526.710000,980030.300000 1327337.770000,980572.230000 1327879.700000,981383.290000 1328070.000000,982340.000000 1328070.000000,993340.000000 1327879.700000,994296.710000 1327337.770000,995107.770000 1326526.710000,995649.700000 1325570.000000,995840.000000 1314570.000000,995840.000000 1313613.290000,995649.700000 1312802.230000,995107.770000 1312260.300000,994296.710000 1312070.000000,993340.000000 1312070.000000,982340.000000 1312260.300000,981383.290000 1312802.230000,980572.230000 1313613.290000,980030.300000 1314570.000000,979840.000000 Z"/> 
<circle cx="1320070.000000" cy="1023840.000000" r="8000.000000"/> 
</g>
<g style="fill:#ffffff; fill-opacity:1.0;  stroke:#ffffff; stroke-width:0.010000; stroke-opacity:1;  stroke-linecap:round; stroke-linejoin:round;">
<circle cx="1615840.000000" cy="990600.000000" r="11000.000000"/> 
</g>
<g style="fill:#ffffff; fill-opacity:1.0;  stroke:#ffffff; stroke-width:0.010000; stroke-opacity:1;  stroke-linecap:round; stroke-linejoin:round;">
<path style="fill:#ffffff; fill-opacity:1.0;  stroke:#ffffff; stroke-width:0.010000; stroke-opacity:1;  stroke-linecap:round; stroke-linejoin:round;fill-rule:evenodd;" d="M 1507090.000000,999850.000000 1506133.290000,999659.700000 1505322.230000,999117.770000 1504780.300000,998306.710000 1504590.000000,997350.000000 1504590.000000,983850.000000 1504780.300000,982893.290000 1505322.230000,982082.230000 1506133.290000,981540.300000 1507090.000000,981350.000000 1520590.000000,981350.000000 1521546.710000,981540.300000 1522357.770000,982082.230000 1522899.700000,982893.290000 1523090.000000,983850.000000 1523090.000000,997350.000000 1522899.700000,998306.710000 1522357.770000,999117.770000 1521546.710000,999659.700000 1520590.000000,999850.000000 Z"/> 
</g>
<g style="fill:#ffffff; fill-opacity:1.0;  stroke:#ffffff; stroke-width:0.010000; stroke-opacity:1;  stroke-linecap:round; stroke-linejoin:round;">
<circle cx="1615840.000000" cy="1061720.000000" r="11000.000000"/> 
</g>
<g style="fill:#ffffff; fill-opacity:1.0;  stroke:#ffffff; stroke-width:0.010000; stroke-opacity:1;  stroke-linecap:round; stroke-linejoin:round;">
<path style="fill:#ffffff; fill-opacity:1.0;  stroke:#ffffff; stroke-width:0.010000; stroke-opacity:1;  stroke-linecap:round; stroke-linejoin:round;fill-rule:evenodd;" d="M 1507090.000000,1070970.000000 1506133.290000,1070779.700000 1505322.230000,1070237.770000 1504780.300000,1069426.710000 1504590.000000,1068470.000000 1504590.000000,1054970.000000 1504780.300000,1054013.290000 1505322.230000,1053202.230000 1506133.290000,1052660.300000 1507090.000000,1052470.000000 1520590.000000,1052470.000000 1521546.710000,1052660.300000 1522357.770000,1053202.230000 1522899.700000,1054013.290000 1523090.000000,1054970.000000 1523090.000000,1068470.000000 1522899.700000,1069426.710000 1522357.770000,1070237.770000 1521546.710000,1070779.700000 1520590.000000,1070970.000000 Z"/> 
</g>
<g style="fill:#ffffff; fill-opacity:1.0;  stroke:#ffffff; stroke-width:0.010000; stroke-opacity:1;  stroke-linecap:round; stroke-linejoin:round;">
<circle cx="1615840.000000" cy="1026160.000000" r="11000.000000"/> 
</g>
<g style="fill:#ffffff; fill-opacity:1.0;  stroke:#ffffff; stroke-width:0.010000; stroke-opacity:1;  stroke-linecap:round; stroke-linejoin:round;">
<path style="fill:#ffffff; fill-opacity:1.0;  stroke:#ffffff; stroke-width:0.010000; stroke-opacity:1;  stroke-linecap:round; stroke-linejoin:round;fill-rule:evenodd;" d="M 1507090.000000,1035410.000000 1506133.290000,1035219.700000 1505322.230000,1034677.770000 1504780.300000,1033866.710000 1504590.000000,1032910.000000 1504590.000000,1019410.000000 1504780.300000,1018453.290000 1505322.230000,1017642.230000 1506133.290000,1017100.300000 1507090.000000,1016910.000000 1520590.000000,1016910.000000 1521546.710000,1017100.300000 1522357.770000,1017642.230000 1522899.700000,1018453.290000 1523090.000000,1019410.000000 1523090.000000,1032910.000000 1522899.700000,1033866.710000 1522357.770000,1034677.770000 1521546.710000,1035219.700000 1520590.000000,1035410.000000 Z"/> 
</g>
</g> 
</mask><mask id="pads-mask-silkscreen"><rect x="1228860.0" y="913900.0" width="412480.0" height="183880.0" fill="white"/><g style="fill:#000000; fill-opacity:0.0;  stroke:#000000; stroke-width:0.000000; stroke-opacity:1;  stroke-linecap:round; stroke-linejoin:round;">
<g style="fill:#000000; fill-opacity:1.0;  stroke:#000000; stroke-width:0.010000; stroke-opacity:1;  stroke-linecap:round; stroke-linejoin:round;">
<circle cx="1260070.000000" cy="1023840.000000" r="7500.000000"/> 
</g>
<g style="fill:#000000; fill-opacity:1.0;  stroke:#000000; stroke-width:0.010000; stroke-opacity:1;  stroke-linecap:round; stroke-linejoin:round;">
<circle cx="1260070.000000" cy="987840.000000" r="7500.000000"/> 
</g>
<g style="fill:#000000; fill-opacity:1.0;  stroke:#000000; stroke-width:0.010000; stroke-opacity:1;  stroke-linecap:round; stroke-linejoin:round;">
<path style="fill:#000000; fill-opacity:1.0;  stroke:#000000; stroke-width:0.010000; stroke-opacity:1;  stroke-linecap:round; stroke-linejoin:round;fill-rule:evenodd;" d="M 1325570.000000,979840.000000 1326526.710000,980030.300000 1327337.770000,980572.230000 1327879.700000,981383.290000 1328070.000000,982340.000000 1328070.000000,993340.000000 1327879.700000,994296.710000 1327337.770000,995107.770000 1326526.710000,995649.700000 1325570.000000,995840.000000 1314570.000000,995840.000000 1313613.290000,995649.700000 1312802.230000,995107.770000 1312260.300000,994296.710000 1312070.000000,993340.000000 1312070.000000,982340.000000 1312260.300000,981383.290000 1312802.230000,980572.230000 1313613.290000,980030.300000 1314570.000000,979840.000000 Z"/> 
<circle cx="1320070.000000" cy="1023840.000000" r="8000.000000"/> 
</g>
<g style="fill:#000000; fill-opacity:1.0;  stroke:#000000; stroke-width:0.010000; stroke-opacity:1;  stroke-linecap:round; stroke-linejoin:round;">
<circle cx="1615840.000000" cy="990600.000000" r="11000.000000"/> 
</g>
<g style="fill:#000000; fill-opacity:1.0;  stroke:#000000; stroke-width:0.010000; stroke-opacity:1;  stroke-linecap:round; stroke-linejoin:round;">
<path style="fill:#000000; fill-opacity:1.0;  stroke:#000000; stroke-width:0.010000; stroke-opacity:1;  stroke-linecap:round; stroke-linejoin:round;fill-rule:evenodd;" d="M 1507090.000000,999850.000000 1506133.290000,999659.700000 1505322.230000,999117.770000 1504780.300000,998306.710000 1504590.000000,997350.000000 1504590.000000,983850.000000 1504780.300000,982893.290000 1505322.230000,982082.230000 1506133.290000,981540.300000 1507090.000000,981350.000000 1520590.000000,981350.000000 1521546.710000,981540.300000 1522357.770000,982082.230000 1522899.700000,982893.290000 1523090.000000,983850.000000 1523090.000000,997350.000000 1522899.700000,998306.710000 1522357.770000,999117.770000 1521546.710000,999659.700000 1520590.000000,999850.000000 Z"/> 
</g>
<g style="fill:#000000; fill-opacity:1.0;  stroke:#000000; stroke-width:0.010000; stroke-opacity:1;  stroke-linecap:round; stroke-linejoin:round;">
<circle cx="1615840.000000" cy="1061720.000000" r="11000.000000"/> 
</g>
<g style="fill:#000000; fill-opacity:1.0;  stroke:#000000; stroke-width:0.010000; stroke-opacity:1;  stroke-linecap:round; stroke-linejoin:round;">
<path style="fill:#000000; fill-opacity:1.0;  stroke:#000000; stroke-width:0.010000; stroke-opacity:1;  stroke-linecap:round; stroke-linejoin:round;fill-rule:evenodd;" d="M 1507090.000000,1070970.000000 1506133.290000,1070779.700000 1505322.230000,1070237.770000 1504780.300000,1069426.710000 1504590.000000,1068470.000000 1504590.000000,1054970.000000 1504780.300000,1054013.290000 1505322.230000,1053202.230000 1506133.290000,1052660.300000 1507090.000000,1052470.000000 1520590.000000,1052470.000000 1521546.710000,1052660.300000 1522357.770000,1053202.230000 1522899.700000,1054013.290000 1523090.000000,1054970.000000 1523090.000000,1068470.000000 1522899.700000,1069426.710000 1522357.770000,1070237.770000 1521546.710000,1070779.700000 1520590.000000,1070970.000000 Z"/> 
</g>
<g style="fill:#000000; fill-opacity:1.0;  stroke:#000000; stroke-width:0.010000; stroke-opacity:1;  stroke-linecap:round; stroke-linejoin:round;">
<circle cx="1615840.000000" cy="1026160.000000" r="11000.000000"/> 
</g>
<g style="fill:#000000; fill-opacity:1.0;  stroke:#000000; stroke-width:0.010000; stroke-opacity:1;  stroke-linecap:round; stroke-linejoin:round;">
<path style="fill:#000000; fill-opacity:1.0;  stroke:#000000; stroke-width:0.010000; stroke-opacity:1;  stroke-linecap:round; stroke-linejoin:round;fill-rule:evenodd;" d="M 1507090.000000,1035410.000000 1506133.290000,1035219.700000 1505322.230000,1034677.770000 1504780.300000,1033866.710000 1504590.000000,1032910.000000 1504590.000000,1019410.000000 1504780.300000,1018453.290000 1505322.230000,1017642.230000 1506133.290000,1017100.300000 1507090.000000,1016910.000000 1520590.000000,1016910.000000 1521546.710000,1017100.300000 1522357.770000,1017642.230000 1522899.700000,1018453.290000 1523090.000000,1019410.000000 1523090.000000,1032910.000000 1522899.700000,1033866.710000 1522357.770000,1034677.770000 1521546.710000,1035219.700000 1520590.000000,1035410.000000 Z"/> 
</g>
</g> 
</mask><mask id="hole-mask"><g><rect x="1228860.0" y="913900.0" fill="white" width="412480.0" height="183880.0"/><polyline stroke-linecap="round" stroke="black" stroke-width="15000.0" points="-0.0 0 0.0 0" transform="translate(1260070.0 1023840.0) rotate(-270.0)"/><polyline stroke-linecap="round" stroke="black" stroke-width="15000.0" points="-0.0 0 0.0 0" transform="translate(1260070.0 987840.0) rotate(-270.0)"/><polyline stroke-linecap="round" stroke="black" stroke-width="6000.0" points="-0.0 0 0.0 0" transform="translate(1320070.0 987840.0) rotate(-270.0)"/><polyline stroke-linecap="round" stroke="black" stroke-width="6000.0" points="-0.0 0 0.0 0" transform="translate(1320070.0 1023840.0) rotate(-270.0)"/><polyline stroke-linecap="round" stroke="black" stroke-width="22000.0" points="-0.0 0 0.0 0" transform="translate(1615840.0 990600.0) rotate(-90.0)"/><polyline stroke-linecap="round" stroke="black" stroke-width="8500.0" points="-0.0 0 0.0 0" transform="translate(1513840.0 990600.0) rotate(-90.0)"/><polyline stroke-linecap="round" stroke="black" stroke-width="22000.0" points="-0.0 0 0.0 0" transform="translate(1615840.0 1061720.0) rotate(-90.0)"/><polyline stroke-linecap="round" stroke="black" stroke-width="8500.0" points="-0.0 0 0.0 0" transform="translate(1513840.0 1061720.0) rotate(-90.0)"/><polyline stroke-linecap="round" stroke="black" stroke-width="22000.0" points="-0.0 0 0.0 0" transform="translate(1615840.0 1026160.0) rotate(-90.0)"/><polyline stroke-linecap="round" stroke="black" stroke-width="8500.0" points="-0.0 0 0.0 0" transform="translate(1513840.0 1026160.0) rotate(-90.0)"/></g></mask></defs><g transform="scale(-1,1)" id="boardContainer"><g id="substrate" clip-path="url(#cut-off)" mask="url(#hole-mask)"><g id="substrate-board" style="fill:#208b47; stroke:#208b47;"><path d=" M 1640840.0 914400.0 L 1640840.0 1097280.0 L 1229360.0 1097280.0 L 1229360.0 914400.0 L 1640840.0 914400.0 " style="fill-rule: evenodd;"/><g style="fill-opacity: 0.0;stroke-width: 1000.000000;stroke-opacity: 1;stroke-linecap: round;stroke-linejoin: round">
<path d="M1229360 914400 L1640840 914400 "/>
<path d="M1640840 914400 L1640840 1097280 "/>
<path d="M1640840 1097280 L1229360 1097280 "/>
<path d="M1229360 1097280 L1229360 914400 "/>
</g> 
</g><g id="substrate-clad" style="fill:#332B16; stroke:#332B16;"><g style="fill-opacity: 0.0;stroke-width: 0.000000;stroke-opacity: 1;stroke-linecap: round;stroke-linejoin: round">
<g style="fill-opacity: 1.0;stroke-width: 0.010000;stroke-opacity: 1;stroke-linecap: round;stroke-linejoin: round">
<circle cx="1260070.000000" cy="1023840.000000" r="7500.000000"/> 
</g>
<g style="fill-opacity: 1.0;stroke-width: 0.010000;stroke-opacity: 1;stroke-linecap: round;stroke-linejoin: round">
<circle cx="1260070.000000" cy="987840.000000" r="7500.000000"/> 
</g>
<g style="fill-opacity: 1.0;stroke-width: 0.010000;stroke-opacity: 1;stroke-linecap: round;stroke-linejoin: round">
<path style="fill-opacity: 1.0;stroke-width: 0.010000;stroke-opacity: 1;stroke-linecap: round;stroke-linejoin: round;fill-rule: evenodd" d="M 1325570.000000,979840.000000 1326526.710000,980030.300000 1327337.770000,980572.230000 1327879.700000,981383.290000 1328070.000000,982340.000000 1328070.000000,993340.000000 1327879.700000,994296.710000 1327337.770000,995107.770000 1326526.710000,995649.700000 1325570.000000,995840.000000 1314570.000000,995840.000000 1313613.290000,995649.700000 1312802.230000,995107.770000 1312260.300000,994296.710000 1312070.000000,993340.000000 1312070.000000,982340.000000 1312260.300000,981383.290000 1312802.230000,980572.230000 1313613.290000,980030.300000 1314570.000000,979840.000000 Z"/> 
<circle cx="1320070.000000" cy="1023840.000000" r="8000.000000"/> 
</g>
<g style="fill-opacity: 1.0;stroke-width: 0.010000;stroke-opacity: 1;stroke-linecap: round;stroke-linejoin: round">
<circle cx="1615840.000000" cy="990600.000000" r="11000.000000"/> 
</g>
<g style="fill-opacity: 1.0;stroke-width: 0.010000;stroke-opacity: 1;stroke-linecap: round;stroke-linejoin: round">
<path style="fill-opacity: 1.0;stroke-width: 0.010000;stroke-opacity: 1;stroke-linecap: round;stroke-linejoin: round;fill-rule: evenodd" d="M 1507090.000000,999850.000000 1506133.290000,999659.700000 1505322.230000,999117.770000 1504780.300000,998306.710000 1504590.000000,997350.000000 1504590.000000,983850.000000 1504780.300000,982893.290000 1505322.230000,982082.230000 1506133.290000,981540.300000 1507090.000000,981350.000000 1520590.000000,981350.000000 1521546.710000,981540.300000 1522357.770000,982082.230000 1522899.700000,982893.290000 1523090.000000,983850.000000 1523090.000000,997350.000000 1522899.700000,998306.710000 1522357.770000,999117.770000 1521546.710000,999659.700000 1520590.000000,999850.000000 Z"/> 
</g>
<g style="fill-opacity: 1.0;stroke-width: 0.010000;stroke-opacity: 1;stroke-linecap: round;stroke-linejoin: round">
<circle cx="1615840.000000" cy="1061720.000000" r="11000.000000"/> 
</g>
<g style="fill-opacity: 1.0;stroke-width: 0.010000;stroke-opacity: 1;stroke-linecap: round;stroke-linejoin: round">
<path style="fill-opacity: 1.0;stroke-width: 0.010000;stroke-opacity: 1;stroke-linecap: round;stroke-linejoin: round;fill-rule: evenodd" d="M 1507090.000000,1070970.000000 1506133.290000,1070779.700000 1505322.230000,1070237.770000 1504780.300000,1069426.710000 1504590.000000,1068470.000000 1504590.000000,1054970.000000 1504780.300000,1054013.290000 1505322.230000,1053202.230000 1506133.290000,1052660.300000 1507090.000000,1052470.000000 1520590.000000,1052470.000000 1521546.710000,1052660.300000 1522357.770000,1053202.230000 1522899.700000,1054013.290000 1523090.000000,1054970.000000 1523090.000000,1068470.000000 1522899.700000,1069426.710000 1522357.770000,1070237.770000 1521546.710000,1070779.700000 1520590.000000,1070970.000000 Z"/> 
</g>
<g style="fill-opacity: 1.0;stroke-width: 0.010000;stroke-opacity: 1;stroke-linecap: round;stroke-linejoin: round">
<circle cx="1615840.000000" cy="1026160.000000" r="11000.000000"/> 
</g>
<g style="fill-opacity: 1.0;stroke-width: 0.010000;stroke-opacity: 1;stroke-linecap: round;stroke-linejoin: round">
<path style="fill-opacity: 1.0;stroke-width: 0.010000;stroke-opacity: 1;stroke-linecap: round;stroke-linejoin: round;fill-rule: evenodd" d="M 1507090.000000,1035410.000000 1506133.290000,1035219.700000 1505322.230000,1034677.770000 1504780.300000,1033866.710000 1504590.000000,1032910.000000 1504590.000000,1019410.000000 1504780.300000,1018453.290000 1505322.230000,1017642.230000 1506133.290000,1017100.300000 1507090.000000,1016910.000000 1520590.000000,1016910.000000 1521546.710000,1017100.300000 1522357.770000,1017642.230000 1522899.700000,1018453.290000 1523090.000000,1019410.000000 1523090.000000,1032910.000000 1522899.700000,1033866.710000 1522357.770000,1034677.770000 1521546.710000,1035219.700000 1520590.000000,1035410.000000 Z"/> 
</g>
</g> 
</g><g id="substrate-copper" style="fill:#285e3a; stroke:#285e3a;"><g style="fill-opacity: 0.0;stroke-width: 0.000000;stroke-opacity: 1;stroke-linecap: round;stroke-linejoin: round">
<g style="fill-opacity: 1.0;stroke-width: 0.010000;stroke-opacity: 1;stroke-linecap: round;stroke-linejoin: round">
<path style="fill-opacity: 1.0;stroke-width: 0.010000;stroke-opacity: 1;stroke-linecap: round;stroke-linejoin: round;fill-rule: evenodd" d="M 1325570.000000,979840.000000 1326526.710000,980030.300000 1327337.770000,980572.230000 1327879.700000,981383.290000 1328070.000000,982340.000000 1328070.000000,993340.000000 1327879.700000,994296.710000 1327337.770000,995107.770000 1326526.710000,995649.700000 1325570.000000,995840.000000 1314570.000000,995840.000000 1313613.290000,995649.700000 1312802.230000,995107.770000 1312260.300000,994296.710000 1312070.000000,993340.000000 1312070.000000,982340.000000 1312260.300000,981383.290000 1312802.230000,980572.230000 1313613.290000,980030.300000 1314570.000000,979840.000000 Z"/> 
<circle cx="1320070.000000" cy="1023840.000000" r="8000.000000"/> 
</g>
<g style="fill-opacity: 1.0;stroke-width: 0.010000;stroke-opacity: 1;stroke-linecap: round;stroke-linejoin: round">
<path style="fill-opacity: 1.0;stroke-width: 0.010000;stroke-opacity: 1;stroke-linecap: round;stroke-linejoin: round;fill-rule: evenodd" d="M 1507090.000000,999850.000000 1506133.290000,999659.700000 1505322.230000,999117.770000 1504780.300000,998306.710000 1504590.000000,997350.000000 1504590.000000,983850.000000 1504780.300000,982893.290000 1505322.230000,982082.230000 1506133.290000,981540.300000 1507090.000000,981350.000000 1520590.000000,981350.000000 1521546.710000,981540.300000 1522357.770000,982082.230000 1522899.700000,982893.290000 1523090.000000,983850.000000 1523090.000000,997350.000000 1522899.700000,998306.710000 1522357.770000,999117.770000 1521546.710000,999659.700000 1520590.000000,999850.000000 Z"/> 
</g>
<g style="fill-opacity: 1.0;stroke-width: 0.010000;stroke-opacity: 1;stroke-linecap: round;stroke-linejoin: round">
<path style="fill-opacity: 1.0;stroke-width: 0.010000;stroke-opacity: 1;stroke-linecap: round;stroke-linejoin: round;fill-rule: evenodd" d="M 1507090.000000,1070970.000000 1506133.290000,1070779.700000 1505322.230000,1070237.770000 1504780.300000,1069426.710000 1504590.000000,1068470.000000 1504590.000000,1054970.000000 1504780.300000,1054013.290000 1505322.230000,1053202.230000 1506133.290000,1052660.300000 1507090.000000,1052470.000000 1520590.000000,1052470.000000 1521546.710000,1052660.300000 1522357.770000,1053202.230000 1522899.700000,1054013.290000 1523090.000000,1054970.000000 1523090.000000,1068470.000000 1522899.700000,1069426.710000 1522357.770000,1070237.770000 1521546.710000,1070779.700000 1520590.000000,1070970.000000 Z"/> 
</g>
<g style="fill-opacity: 1.0;stroke-width: 0.010000;stroke-opacity: 1;stroke-linecap: round;stroke-linejoin: round">
<path style="fill-opacity: 1.0;stroke-width: 0.010000;stroke-opacity: 1;stroke-linecap: round;stroke-linejoin: round;fill-rule: evenodd" d="M 1507090.000000,1035410.000000 1506133.290000,1035219.700000 1505322.230000,1034677.770000 1504780.300000,1033866.710000 1504590.000000,1032910.000000 1504590.000000,1019410.000000 1504780.300000,1018453.290000 1505322.230000,1017642.230000 1506133.290000,1017100.300000 1507090.000000,1016910.000000 1520590.000000,1016910.000000 1521546.710000,1017100.300000 1522357.770000,1017642.230000 1522899.700000,1018453.290000 1523090.000000,1019410.000000 1523090.000000,1032910.000000 1522899.700000,1033866.710000 1522357.770000,1034677.770000 1521546.710000,1035219.700000 1520590.000000,1035410.000000 Z"/> 
</g>
</g> 
</g><g id="substrate-pads" style="fill:#d39751; stroke:#d39751;" mask="url(#pads-mask)"><g style="fill-opacity: 0.0;stroke-width: 0.000000;stroke-opacity: 1;stroke-linecap: round;stroke-linejoin: round">
<g style="fill-opacity: 1.0;stroke-width: 0.010000;stroke-opacity: 1;stroke-linecap: round;stroke-linejoin: round">
<path style="fill-opacity: 1.0;stroke-width: 0.010000;stroke-opacity: 1;stroke-linecap: round;stroke-linejoin: round;fill-rule: evenodd" d="M 1325570.000000,979840.000000 1326526.710000,980030.300000 1327337.770000,980572.230000 1327879.700000,981383.290000 1328070.000000,982340.000000 1328070.000000,993340.000000 1327879.700000,994296.710000 1327337.770000,995107.770000 1326526.710000,995649.700000 1325570.000000,995840.000000 1314570.000000,995840.000000 1313613.290000,995649.700000 1312802.230000,995107.770000 1312260.300000,994296.710000 1312070.000000,993340.000000 1312070.000000,982340.000000 1312260.300000,981383.290000 1312802.230000,980572.230000 1313613.290000,980030.300000 1314570.000000,979840.000000 Z"/> 
<circle cx="1320070.000000" cy="1023840.000000" r="8000.000000"/> 
</g>
<g style="fill-opacity: 1.0;stroke-width: 0.010000;stroke-opacity: 1;stroke-linecap: round;stroke-linejoin: round">
<path style="fill-opacity: 1.0;stroke-width: 0.010000;stroke-opacity: 1;stroke-linecap: round;stroke-linejoin: round;fill-rule: evenodd" d="M 1507090.000000,999850.000000 1506133.290000,999659.700000 1505322.230000,999117.770000 1504780.300000,998306.710000 1504590.000000,997350.000000 1504590.000000,983850.000000 1504780.300000,982893.290000 1505322.230000,982082.230000 1506133.290000,981540.300000 1507090.000000,981350.000000 1520590.000000,981350.000000 1521546.710000,981540.300000 1522357.770000,982082.230000 1522899.700000,982893.290000 1523090.000000,983850.000000 1523090.000000,997350.000000 1522899.700000,998306.710000 1522357.770000,999117.770000 1521546.710000,999659.700000 1520590.000000,999850.000000 Z"/> 
</g>
<g style="fill-opacity: 1.0;stroke-width: 0.010000;stroke-opacity: 1;stroke-linecap: round;stroke-linejoin: round">
<path style="fill-opacity: 1.0;stroke-width: 0.010000;stroke-opacity: 1;stroke-linecap: round;stroke-linejoin: round;fill-rule: evenodd" d="M 1507090.000000,1070970.000000 1506133.290000,1070779.700000 1505322.230000,1070237.770000 1504780.300000,1069426.710000 1504590.000000,1068470.000000 1504590.000000,1054970.000000 1504780.300000,1054013.290000 1505322.230000,1053202.230000 1506133.290000,1052660.300000 1507090.000000,1052470.000000 1520590.000000,1052470.000000 1521546.710000,1052660.300000 1522357.770000,1053202.230000 1522899.700000,1054013.290000 1523090.000000,1054970.000000 1523090.000000,1068470.000000 1522899.700000,1069426.710000 1522357.770000,1070237.770000 1521546.710000,1070779.700000 1520590.000000,1070970.000000 Z"/> 
</g>
<g style="fill-opacity: 1.0;stroke-width: 0.010000;stroke-opacity: 1;stroke-linecap: round;stroke-linejoin: round">
<path style="fill-opacity: 1.0;stroke-width: 0.010000;stroke-opacity: 1;stroke-linecap: round;stroke-linejoin: round;fill-rule: evenodd" d="M 1507090.000000,1035410.000000 1506133.290000,1035219.700000 1505322.230000,1034677.770000 1504780.300000,1033866.710000 1504590.000000,1032910.000000 1504590.000000,1019410.000000 1504780.300000,1018453.290000 1505322.230000,1017642.230000 1506133.290000,1017100.300000 1507090.000000,1016910.000000 1520590.000000,1016910.000000 1521546.710000,1017100.300000 1522357.770000,1017642.230000 1522899.700000,1018453.290000 1523090.000000,1019410.000000 1523090.000000,1032910.000000 1522899.700000,1033866.710000 1522357.770000,1034677.770000 1521546.710000,1035219.700000 1520590.000000,1035410.000000 Z"/> 
</g>
</g> 
</g><g id="substrate-outline" style="fill:#000000; stroke:#000000; stroke-width: 1500.0"><g style="fill-opacity: 0.0;stroke-opacity: 1;stroke-linecap: round;stroke-linejoin: round">
<path d="M1229360 914400 L1640840 914400 "/>
<path d="M1640840 914400 L1640840 1097280 "/>
<path d="M1640840 1097280 L1229360 1097280 "/>
<path d="M1229360 1097280 L1229360 914400 "/>
</g> 
<path d="M -7500.0 0.0 A 7500.0 7500.0 0 1 1 7500.0 0.0 L 7500.0 -0.0 A 7500.0 7500.0 0 1 1 -7500.0 -0.0 Z" transform="translate(1260070.0 1023840.0) rotate(-270.0)"/><path d="M -7500.0 0.0 A 7500.0 7500.0 0 1 1 7500.0 0.0 L 7500.0 -0.0 A 7500.0 7500.0 0 1 1 -7500.0 -0.0 Z" transform="translate(1260070.0 987840.0) rotate(-270.0)"/><path d="M -3000.0 0.0 A 3000.0 3000.0 0 1 1 3000.0 0.0 L 3000.0 -0.0 A 3000.0 3000.0 0 1 1 -3000.0 -0.0 Z" transform="translate(1320070.0 987840.0) rotate(-270.0)"/><path d="M -3000.0 0.0 A 3000.0 3000.0 0 1 1 3000.0 0.0 L 3000.0 -0.0 A 3000.0 3000.0 0 1 1 -3000.0 -0.0 Z" transform="translate(1320070.0 1023840.0) rotate(-270.0)"/><path d="M -11000.0 0.0 A 11000.0 11000.0 0 1 1 11000.0 0.0 L 11000.0 -0.0 A 11000.0 11000.0 0 1 1 -11000.0 -0.0 Z" transform="translate(1615840.0 990600.0) rotate(-90.0)"/><path d="M -4250.0 0.0 A 4250.0 4250.0 0 1 1 4250.0 0.0 L 4250.0 -0.0 A 4250.0 4250.0 0 1 1 -4250.0 -0.0 Z" transform="translate(1513840.0 990600.0) rotate(-90.0)"/><path d="M -11000.0 0.0 A 11000.0 11000.0 0 1 1 11000.0 0.0 L 11000.0 -0.0 A 11000.0 11000.0 0 1 1 -11000.0 -0.0 Z" transform="translate(1615840.0 1061720.0) rotate(-90.0)"/><path d="M -4250.0 0.0 A 4250.0 4250.0 0 1 1 4250.0 0.0 L 4250.0 -0.0 A 4250.0 4250.0 0 1 1 -4250.0 -0.0 Z" transform="translate(1513840.0 1061720.0) rotate(-90.0)"/><path d="M -11000.0 0.0 A 11000.0 11000.0 0 1 1 11000.0 0.0 L 11000.0 -0.0 A 11000.0 11000.0 0 1 1 -11000.0 -0.0 Z" transform="translate(1615840.0 1026160.0) rotate(-90.0)"/><path d="M -4250.0 0.0 A 4250.0 4250.0 0 1 1 4250.0 0.0 L 4250.0 -0.0 A 4250.0 4250.0 0 1 1 -4250.0 -0.0 Z" transform="translate(1513840.0 1026160.0) rotate(-90.0)"/></g></g></g></svg>