<!DOCTYPE svg PUBLIC "-//W3C//DTD SVG 1.1//EN" "http://www.w3.org/Graphics/SVG/1.1/DTD/svg11.dtd">
<svg xmlns="http://www.w3.org/2000/svg" version="1.1" width="41.247999mm" height="18.388mm" viewBox="-164.134 91.39 41.24799999999999 18.388000000000005">
            <title>Picture generated by PcbDraw </title>
            <desc>Picture generated by PcbDraw</desc>
        <defs><clipPath id="cut-off"><path d="M122.9360 109.7280 L122.9360 91.4400 M 164.084 91.44 L 164.084 109.728 L 122.936 109.728 L 122.936 91.44 L 164.084 91.44 " style="fill-rule: evenodd;"/></clipPath><mask id="pads-mask"><g style="fill:#ffffff; fill-opacity:0.0;  stroke:#ffffff; stroke-width:0.0000; stroke-opacity:1;  stroke-linecap:round; stroke-linejoin:round;">
<g style="fill:#ffffff; fill-opacity:1.0000;  stroke:#ffffff; stroke-width:0.0000; stroke-opacity:1;  stroke-linecap:round; stroke-linejoin:round;">
<circle cx="126.0070" cy="98.7840" r="0.7500"/> 
</g>
<g style="fill:#ffffff; fill-opacity:1.0000;  stroke:#ffffff; stroke-width:0.0000; stroke-opacity:1;  stroke-linecap:round; stroke-linejoin:round;">
<circle cx="126.0070" cy="102.3840" r="0.7500"/> 
</g>
<g style="fill:#ffffff; fill-opacity:1.0000;  stroke:#ffffff; stroke-width:0.0000; stroke-opacity:1;  stroke-linecap:round; stroke-linejoin:round;">
<path style="fill:#ffffff; fill-opacity:1.0000;  stroke:#ffffff; stroke-width:0.0000; stroke-opacity:1;  stroke-linecap:round; stroke-linejoin:round;fill-rule:evenodd;" d="M 132.5570,97.9840 132.6527,98.0030 132.7338,98.0572 132.7880,98.1383 132.8070,98.2340 132.8070,99.3340 132.7880,99.4297 132.7338,99.5108 132.6527,99.5650 132.5570,99.5840 131.4570,99.5840 131.3613,99.5650 131.2802,99.5108 131.2260,99.4297 131.2070,99.3340 131.2070,98.2340 131.2260,98.1383 131.2802,98.0572 131.3613,98.0030 131.4570,97.9840 Z"/> 
<circle cx="132.0070" cy="102.3840" r="0.8000"/> 
</g>
<g style="fill:#ffffff; fill-opacity:1.0000;  stroke:#ffffff; stroke-width:0.0000; stroke-opacity:1;  stroke-linecap:round; stroke-linejoin:round;">
<circle cx="161.5840" cy="99.0600" r="1.1000"/> 
</g>
<g style="fill:#ffffff; fill-opacity:1.0000;  stroke:#ffffff; stroke-width:0.0000; stroke-opacity:1;  stroke-linecap:round; stroke-linejoin:round;">
<path style="fill:#ffffff; fill-opacity:1.0000;  stroke:#ffffff; stroke-width:0.0000; stroke-opacity:1;  stroke-linecap:round; stroke-linejoin:round;fill-rule:evenodd;" d="M 150.7090,99.9850 150.6133,99.9660 150.5322,99.9118 150.4780,99.8307 150.4590,99.7350 150.4590,98.3850 150.4780,98.2893 150.5322,98.2082 150.6133,98.1540 150.7090,98.1350 152.0590,98.1350 152.1547,98.1540 152.2358,98.2082 152.2900,98.2893 152.3090,98.3850 152.3090,99.7350 152.2900,99.8307 152.2358,99.9118 152.1547,99.9660 152.0590,99.9850 Z"/> 
</g>
<g style="fill:#ffffff; fill-opacity:1.0000;  stroke:#ffffff; stroke-width:0.0000; stroke-opacity:1;  stroke-linecap:round; stroke-linejoin:round;">
<circle cx="161.5840" cy="106.1720" r="1.1000"/> 
</g>
<g style="fill:#ffffff; fill-opacity:1.0000;  stroke:#ffffff; stroke-width:0.0000; stroke-opacity:1;  stroke-linecap:round; stroke-linejoin:round;">
<path style="fill:#ffffff; fill-opacity:1.0000;  stroke:#ffffff; stroke-width:0.0000; stroke-opacity:1;  stroke-linecap:round; stroke-linejoin:round;fill-rule:evenodd;" d="M 150.7090,107.0970 150.6133,107.0780 150.5322,107.0238 150.4780,106.9427 150.4590,106.8470 150.4590,105.4970 150.4780,105.4013 150.5322,105.3202 150.6133,105.2660 150.7090,105.2470 152.0590,105.2470 152.1547,105.2660 152.2358,105.3202 152.2900,105.4013 152.3090,105.4970 152.3090,106.8470 152.2900,106.9427 152.2358,107.0238 152.1547,107.0780 152.0590,107.0970 Z"/> 
</g>
<g style="fill:#ffffff; fill-opacity:1.0000;  stroke:#ffffff; stroke-width:0.0000; stroke-opacity:1;  stroke-linecap:round; stroke-linejoin:round;">
<circle cx="161.5840" cy="102.6160" r="1.1000"/> 
</g>
<g style="fill:#ffffff; fill-opacity:1.0000;  stroke:#ffffff; stroke-width:0.0000; stroke-opacity:1;  stroke-linecap:round; stroke-linejoin:round;">
<path style="fill:#ffffff; fill-opacity:1.0000;  stroke:#ffffff; stroke-width:0.0000; stroke-opacity:1;  stroke-linecap:round; stroke-linejoin:round;fill-rule:evenodd;" d="M 150.7090,103.5410 150.6133,103.5220 150.5322,103.4678 150.4780,103.3867 150.4590,103.2910 150.4590,101.9410 150.4780,101.8453 150.5322,101.7642 150.6133,101.7100 150.7090,101.6910 152.0590,101.6910 152.1547,101.7100 152.2358,101.7642 152.2900,101.8453 152.3090,101.9410 152.3090,103.2910 152.2900,103.3867 152.2358,103.4678 152.1547,103.5220 152.0590,103.5410 Z"/> 
</g>
</g> 
</mask><mask id="pads-mask-silkscreen"><rect x="122.886" y="91.39" width="41.248" height="18.388" fill="white"/><g style="fill:#000000; fill-opacity:0.0;  stroke:#000000; stroke-width:0.0000; stroke-opacity:1;  stroke-linecap:round; stroke-linejoin:round;">
<g style="fill:#000000; fill-opacity:1.0000;  stroke:#000000; stroke-width:0.0000; stroke-opacity:1;  stroke-linecap:round; stroke-linejoin:round;">
<circle cx="126.0070" cy="98.7840" r="0.7500"/> 
</g>
<g style="fill:#000000; fill-opacity:1.0000;  stroke:#000000; stroke-width:0.0000; stroke-opacity:1;  stroke-linecap:round; stroke-linejoin:round;">
<circle cx="126.0070" cy="102.3840" r="0.7500"/> 
</g>
<g style="fill:#000000; fill-opacity:1.0000;  stroke:#000000; stroke-width:0.0000; stroke-opacity:1;  stroke-linecap:round; stroke-linejoin:round;">
<path style="fill:#000000; fill-opacity:1.0000;  stroke:#000000; stroke-width:0.0000; stroke-opacity:1;  stroke-linecap:round; stroke-linejoin:round;fill-rule:evenodd;" d="M 132.5570,97.9840 132.6527,98.0030 132.7338,98.0572 132.7880,98.1383 132.8070,98.2340 132.8070,99.3340 132.7880,99.4297 132.7338,99.5108 132.6527,99.5650 132.5570,99.5840 131.4570,99.5840 131.3613,99.5650 131.2802,99.5108 131.2260,99.4297 131.2070,99.3340 131.2070,98.2340 131.2260,98.1383 131.2802,98.0572 131.3613,98.0030 131.4570,97.9840 Z"/> 
<circle cx="132.0070" cy="102.3840" r="0.8000"/> 
</g>
<g style="fill:#000000; fill-opacity:1.0000;  stroke:#000000; stroke-width:0.0000; stroke-opacity:1;  stroke-linecap:round; stroke-linejoin:round;">
<circle cx="161.5840" cy="99.0600" r="1.1000"/> 
</g>
<g style="fill:#000000; fill-opacity:1.0000;  stroke:#000000; stroke-width:0.0000; stroke-opacity:1;  stroke-linecap:round; stroke-linejoin:round;">
<path style="fill:#000000; fill-opacity:1.0000;  stroke:#000000; stroke-width:0.0000; stroke-opacity:1;  stroke-linecap:round; stroke-linejoin:round;fill-rule:evenodd;" d="M 150.7090,99.9850 150.6133,99.9660 150.5322,99.9118 150.4780,99.8307 150.4590,99.7350 150.4590,98.3850 150.4780,98.2893 150.5322,98.2082 150.6133,98.1540 150.7090,98.1350 152.0590,98.1350 152.1547,98.1540 152.2358,98.2082 152.2900,98.2893 152.3090,98.3850 152.3090,99.7350 152.2900,99.8307 152.2358,99.9118 152.1547,99.9660 152.0590,99.9850 Z"/> 
</g>
<g style="fill:#000000; fill-opacity:1.0000;  stroke:#000000; stroke-width:0.0000; stroke-opacity:1;  stroke-linecap:round; stroke-linejoin:round;">
<circle cx="161.5840" cy="106.1720" r="1.1000"/> 
</g>
<g style="fill:#000000; fill-opacity:1.0000;  stroke:#000000; stroke-width:0.0000; stroke-opacity:1;  stroke-linecap:round; stroke-linejoin:round;">
<path style="fill:#000000; fill-opacity:1.0000;  stroke:#000000; stroke-width:0.0000; stroke-opacity:1;  stroke-linecap:round; stroke-linejoin:round;fill-rule:evenodd;" d="M 150.7090,107.0970 150.6133,107.0780 150.5322,107.0238 150.4780,106.9427 150.4590,106.8470 150.4590,105.4970 150.4780,105.4013 150.5322,105.3202 150.6133,105.2660 150.7090,105.2470 152.0590,105.2470 152.1547,105.2660 152.2358,105.3202 152.2900,105.4013 152.3090,105.4970 152.3090,106.8470 152.2900,106.9427 152.2358,107.0238 152.1547,107.0780 152.0590,107.0970 Z"/> 
</g>
<g style="fill:#000000; fill-opacity:1.0000;  stroke:#000000; stroke-width:0.0000; stroke-opacity:1;  stroke-linecap:round; stroke-linejoin:round;">
<circle cx="161.5840" cy="102.6160" r="1.1000"/> 
</g>
<g style="fill:#000000; fill-opacity:1.0000;  stroke:#000000; stroke-width:0.0000; stroke-opacity:1;  stroke-linecap:round; stroke-linejoin:round;">
<path style="fill:#000000; fill-opacity:1.0000;  stroke:#000000; stroke-width:0.0000; stroke-opacity:1;  stroke-linecap:round; stroke-linejoin:round;fill-rule:evenodd;" d="M 150.7090,103.5410 150.6133,103.5220 150.5322,103.4678 150.4780,103.3867 150.4590,103.2910 150.4590,101.9410 150.4780,101.8453 150.5322,101.7642 150.6133,101.7100 150.7090,101.6910 152.0590,101.6910 152.1547,101.7100 152.2358,101.7642 152.2900,101.8453 152.3090,101.9410 152.3090,103.2910 152.2900,103.3867 152.2358,103.4678 152.1547,103.5220 152.0590,103.5410 Z"/> 
</g>
</g> 
</mask><mask id="hole-mask"><g><rect x="122.886" y="91.39" fill="white" width="41.248" height="18.388"/><polyline stroke-linecap="round" stroke="black" stroke-width="1.5" points="-0.0 0 0.0 0" transform="translate(126.007 98.784) rotate(-270.0)"/><polyline stroke-linecap="round" stroke="black" stroke-width="1.5" points="-0.0 0 0.0 0" transform="translate(126.007 102.384) rotate(-270.0)"/><polyline stroke-linecap="round" stroke="black" stroke-width="0.6" points="-0.0 0 0.0 0" transform="translate(132.007 98.784) rotate(-270.0)"/><polyline stroke-linecap="round" stroke="black" stroke-width="0.6" points="-0.0 0 0.0 0" transform="translate(132.007 102.384) rotate(-270.0)"/><polyline stroke-linecap="round" stroke="black" stroke-width="2.2" points="-0.0 0 0.0 0" transform="translate(161.584 99.06) rotate(-90.0)"/><polyline stroke-linecap="round" stroke="black" stroke-width="0.85" points="-0.0 0 0.0 0" transform="translate(151.384 99.06) rotate(-90.0)"/><polyline stroke-linecap="round" stroke="black" stroke-width="2.2" points="-0.0 0 0.0 0" transform="translate(161.584 106.172) rotate(-90.0)"/><polyline stroke-linecap="round" stroke="black" stroke-width="0.85" points="-0.0 0 0.0 0" transform="translate(151.384 106.172) rotate(-90.0)"/><polyline stroke-linecap="round" stroke="black" stroke-width="2.2" points="-0.0 0 0.0 0" transform="translate(161.584 102.616) rotate(-90.0)"/><polyline stroke-linecap="round" stroke="black" stroke-width="0.85" points="-0.0 0 0.0 0" transform="translate(151.384 102.616) rotate(-90.0)"/></g></mask></defs><g transform="scale(-1,1)" id="boardContainer"><g id="substrate" clip-path="url(#cut-off)" mask="url(#hole-mask)"><g id="substrate-board" style="fill:#208b47; stroke:#208b47;"><path d="M122.9360 109.7280 L122.9360 91.4400 M 164.084 91.44 L 164.084 109.728 L 122.936 109.728 L 122.936 91.44 L 164.084 91.44 " style="fill-rule: evenodd;"/><g style="fill-opacity: 0.0;stroke-width: 0.1000;stroke-opacity: 1;stroke-linecap: round;stroke-linejoin: round">
<path style="fill-opacity: 0.0;stroke-width: 0.1000;stroke-opacity: 1;stroke-linecap: round;stroke-linejoin: round" d="M 122.9360,91.4400 164.0840,91.4400 164.0840,109.7280 122.9360,109.7280 Z"/> 
</g> 
</g><g id="substrate-clad" style="fill:#332B16; stroke:#332B16;"><g style="fill-opacity: 0.0;stroke-width: 0.0000;stroke-opacity: 1;stroke-linecap: round;stroke-linejoin: round">
<g style="fill-opacity: 1.0000;stroke-width: 0.0000;stroke-opacity: 1;stroke-linecap: round;stroke-linejoin: round">
<circle cx="126.0070" cy="98.7840" r="0.7500"/> 
</g>
<g style="fill-opacity: 1.0000;stroke-width: 0.0000;stroke-opacity: 1;stroke-linecap: round;stroke-linejoin: round">
<circle cx="126.0070" cy="102.3840" r="0.7500"/> 
</g>
<g style="fill-opacity: 1.0000;stroke-width: 0.0000;stroke-opacity: 1;stroke-linecap: round;stroke-linejoin: round">
<path style="fill-opacity: 1.0000;stroke-width: 0.0000;stroke-opacity: 1;stroke-linecap: round;stroke-linejoin: round;fill-rule: evenodd" d="M 132.5570,97.9840 132.6527,98.0030 132.7338,98.0572 132.7880,98.1383 132.8070,98.2340 132.8070,99.3340 132.7880,99.4297 132.7338,99.5108 132.6527,99.5650 132.5570,99.5840 131.4570,99.5840 131.3613,99.5650 131.2802,99.5108 131.2260,99.4297 131.2070,99.3340 131.2070,98.2340 131.2260,98.1383 131.2802,98.0572 131.3613,98.0030 131.4570,97.9840 Z"/> 
<circle cx="132.0070" cy="102.3840" r="0.8000"/> 
</g>
<g style="fill-opacity: 1.0000;stroke-width: 0.0000;stroke-opacity: 1;stroke-linecap: round;stroke-linejoin: round">
<circle cx="161.5840" cy="99.0600" r="1.1000"/> 
</g>
<g style="fill-opacity: 1.0000;stroke-width: 0.0000;stroke-opacity: 1;stroke-linecap: round;stroke-linejoin: round">
<path style="fill-opacity: 1.0000;stroke-width: 0.0000;stroke-opacity: 1;stroke-linecap: round;stroke-linejoin: round;fill-rule: evenodd" d="M 150.7090,99.9850 150.6133,99.9660 150.5322,99.9118 150.4780,99.8307 150.4590,99.7350 150.4590,98.3850 150.4780,98.2893 150.5322,98.2082 150.6133,98.1540 150.7090,98.1350 152.0590,98.1350 152.1547,98.1540 152.2358,98.2082 152.2900,98.2893 152.3090,98.3850 152.3090,99.7350 152.2900,99.8307 152.2358,99.9118 152.1547,99.9660 152.0590,99.9850 Z"/> 
</g>
<g style="fill-opacity: 1.0000;stroke-width: 0.0000;stroke-opacity: 1;stroke-linecap: round;stroke-linejoin: round">
<circle cx="161.5840" cy="106.1720" r="1.1000"/> 
</g>
<g style="fill-opacity: 1.0000;stroke-width: 0.0000;stroke-opacity: 1;stroke-linecap: round;stroke-linejoin: round">
<path style="fill-opacity: 1.0000;stroke-width: 0.0000;stroke-opacity: 1;stroke-linecap: round;stroke-linejoin: round;fill-rule: evenodd" d="M 150.7090,107.0970 150.6133,107.0780 150.5322,107.0238 150.4780,106.9427 150.4590,106.8470 150.4590,105.4970 150.4780,105.4013 150.5322,105.3202 150.6133,105.2660 150.7090,105.2470 152.0590,105.2470 152.1547,105.2660 152.2358,105.3202 152.2900,105.4013 152.3090,105.4970 152.3090,106.8470 152.2900,106.9427 152.2358,107.0238 152.1547,107.0780 152.0590,107.0970 Z"/> 
</g>
<g style="fill-opacity: 1.0000;stroke-width: 0.0000;stroke-opacity: 1;stroke-linecap: round;stroke-linejoin: round">
<circle cx="161.5840" cy="102.6160" r="1.1000"/> 
</g>
<g style="fill-opacity: 1.0000;stroke-width: 0.0000;stroke-opacity: 1;stroke-linecap: round;stroke-linejoin: round">
<path style="fill-opacity: 1.0000;stroke-width: 0.0000;stroke-opacity: 1;stroke-linecap: round;stroke-linejoin: round;fill-rule: evenodd" d="M 150.7090,103.5410 150.6133,103.5220 150.5322,103.4678 150.4780,103.3867 150.4590,103.2910 150.4590,101.9410 150.4780,101.8453 150.5322,101.7642 150.6133,101.7100 150.7090,101.6910 152.0590,101.6910 152.1547,101.7100 152.2358,101.7642 152.2900,101.8453 152.3090,101.9410 152.3090,103.2910 152.2900,103.3867 152.2358,103.4678 152.1547,103.5220 152.0590,103.5410 Z"/> 
</g>
</g> 
</g><g id="substrate-copper" style="fill:#285e3a; stroke:#285e3a;"><g style="fill-opacity: 0.0;stroke-width: 0.0000;stroke-opacity: 1;stroke-linecap: round;stroke-linejoin: round">
<g style="fill-opacity: 1.0000;stroke-width: 0.0000;stroke-opacity: 1;stroke-linecap: round;stroke-linejoin: round">
<path style="fill-opacity: 1.0000;stroke-width: 0.0000;stroke-opacity: 1;stroke-linecap: round;stroke-linejoin: round;fill-rule: evenodd" d="M 132.5570,97.9840 132.6527,98.0030 132.7338,98.0572 132.7880,98.1383 132.8070,98.2340 132.8070,99.3340 132.7880,99.4297 132.7338,99.5108 132.6527,99.5650 132.5570,99.5840 131.4570,99.5840 131.3613,99.5650 131.2802,99.5108 131.2260,99.4297 131.2070,99.3340 131.2070,98.2340 131.2260,98.1383 131.2802,98.0572 131.3613,98.0030 131.4570,97.9840 Z"/> 
<circle cx="132.0070" cy="102.3840" r="0.8000"/> 
</g>
<g style="fill-opacity: 1.0000;stroke-width: 0.0000;stroke-opacity: 1;stroke-linecap: round;stroke-linejoin: round">
<path style="fill-opacity: 1.0000;stroke-width: 0.0000;stroke-opacity: 1;stroke-linecap: round;stroke-linejoin: round;fill-rule: evenodd" d="M 150.7090,99.9850 150.6133,99.9660 150.5322,99.9118 150.4780,99.8307 150.4590,99.7350 150.4590,98.3850 150.4780,98.2893 150.5322,98.2082 150.6133,98.1540 150.7090,98.1350 152.0590,98.1350 152.1547,98.1540 152.2358,98.2082 152.2900,98.2893 152.3090,98.3850 152.3090,99.7350 152.2900,99.8307 152.2358,99.9118 152.1547,99.9660 152.0590,99.9850 Z"/> 
</g>
<g style="fill-opacity: 1.0000;stroke-width: 0.0000;stroke-opacity: 1;stroke-linecap: round;stroke-linejoin: round">
<path style="fill-opacity: 1.0000;stroke-width: 0.0000;stroke-opacity: 1;stroke-linecap: round;stroke-linejoin: round;fill-rule: evenodd" d="M 150.7090,107.0970 150.6133,107.0780 150.5322,107.0238 150.4780,106.9427 150.4590,106.8470 150.4590,105.4970 150.4780,105.4013 150.5322,105.3202 150.6133,105.2660 150.7090,105.2470 152.0590,105.2470 152.1547,105.2660 152.2358,105.3202 152.2900,105.4013 152.3090,105.4970 152.3090,106.8470 152.2900,106.9427 152.2358,107.0238 152.1547,107.0780 152.0590,107.0970 Z"/> 
</g>
<g style="fill-opacity: 1.0000;stroke-width: 0.0000;stroke-opacity: 1;stroke-linecap: round;stroke-linejoin: round">
<path style="fill-opacity: 1.0000;stroke-width: 0.0000;stroke-opacity: 1;stroke-linecap: round;stroke-linejoin: round;fill-rule: evenodd" d="M 150.7090,103.5410 150.6133,103.5220 150.5322,103.4678 150.4780,103.3867 150.4590,103.2910 150.4590,101.9410 150.4780,101.8453 150.5322,101.7642 150.6133,101.7100 150.7090,101.6910 152.0590,101.6910 152.1547,101.7100 152.2358,101.7642 152.2900,101.8453 152.3090,101.9410 152.3090,103.2910 152.2900,103.3867 152.2358,103.4678 152.1547,103.5220 152.0590,103.5410 Z"/> 
</g>
</g> 
</g><g id="substrate-pads" style="fill:#d39751; stroke:#d39751;" mask="url(#pads-mask)"><g style="fill-opacity: 0.0;stroke-width: 0.0000;stroke-opacity: 1;stroke-linecap: round;stroke-linejoin: round">
<g style="fill-opacity: 1.0000;stroke-width: 0.0000;stroke-opacity: 1;stroke-linecap: round;stroke-linejoin: round">
<path style="fill-opacity: 1.0000;stroke-width: 0.0000;stroke-opacity: 1;stroke-linecap: round;stroke-linejoin: round;fill-rule: evenodd" d="M 132.5570,97.9840 132.6527,98.0030 132.7338,98.0572 132.7880,98.1383 132.8070,98.2340 132.8070,99.3340 132.7880,99.4297 132.7338,99.5108 132.6527,99.5650 132.5570,99.5840 131.4570,99.5840 131.3613,99.5650 131.2802,99.5108 131.2260,99.4297 131.2070,99.3340 131.2070,98.2340 131.2260,98.1383 131.2802,98.0572 131.3613,98.0030 131.4570,97.9840 Z"/> 
<circle cx="132.0070" cy="102.3840" r="0.8000"/> 
</g>
<g style="fill-opacity: 1.0000;stroke-width: 0.0000;stroke-opacity: 1;stroke-linecap: round;stroke-linejoin: round">
<path style="fill-opacity: 1.0000;stroke-width: 0.0000;stroke-opacity: 1;stroke-linecap: round;stroke-linejoin: round;fill-rule: evenodd" d="M 150.7090,99.9850 150.6133,99.9660 150.5322,99.9118 150.4780,99.8307 150.4590,99.7350 150.4590,98.3850 150.4780,98.2893 150.5322,98.2082 150.6133,98.1540 150.7090,98.1350 152.0590,98.1350 152.1547,98.1540 152.2358,98.2082 152.2900,98.2893 152.3090,98.3850 152.3090,99.7350 152.2900,99.8307 152.2358,99.9118 152.1547,99.9660 152.0590,99.9850 Z"/> 
</g>
<g style="fill-opacity: 1.0000;stroke-width: 0.0000;stroke-opacity: 1;stroke-linecap: round;stroke-linejoin: round">
<path style="fill-opacity: 1.0000;stroke-width: 0.0000;stroke-opacity: 1;stroke-linecap: round;stroke-linejoin: round;fill-rule: evenodd" d="M 150.7090,107.0970 150.6133,107.0780 150.5322,107.0238 150.4780,106.9427 150.4590,106.8470 150.4590,105.4970 150.4780,105.4013 150.5322,105.3202 150.6133,105.2660 150.7090,105.2470 152.0590,105.2470 152.1547,105.2660 152.2358,105.3202 152.2900,105.4013 152.3090,105.4970 152.3090,106.8470 152.2900,106.9427 152.2358,107.0238 152.1547,107.0780 152.0590,107.0970 Z"/> 
</g>
<g style="fill-opacity: 1.0000;stroke-width: 0.0000;stroke-opacity: 1;stroke-linecap: round;stroke-linejoin: round">
<path style="fill-opacity: 1.0000;stroke-width: 0.0000;stroke-opacity: 1;stroke-linecap: round;stroke-linejoin: round;fill-rule: evenodd" d="M 150.7090,103.5410 150.6133,103.5220 150.5322,103.4678 150.4780,103.3867 150.4590,103.2910 150.4590,101.9410 150.4780,101.8453 150.5322,101.7642 150.6133,101.7100 150.7090,101.6910 152.0590,101.6910 152.1547,101.7100 152.2358,101.7642 152.2900,101.8453 152.3090,101.9410 152.3090,103.2910 152.2900,103.3867 152.2358,103.4678 152.1547,103.5220 152.0590,103.5410 Z"/> 
</g>
</g> 
</g><g id="substrate-outline" style="fill:#000000; stroke:#000000; stroke-width: 0.15"><g style="fill-opacity: 0.0;stroke-opacity: 1;stroke-linecap: round;stroke-linejoin: round">
<path style="fill-opacity: 0.0;stroke-opacity: 1;stroke-linecap: round;stroke-linejoin: round" d="M 122.9360,91.4400 164.0840,91.4400 164.0840,109.7280 122.9360,109.7280 Z"/> 
</g> 
<path d="M -0.75 0.0 A 0.75 0.75 0 1 1 0.75 0.0 L 0.75 -0.0 A 0.75 0.75 0 1 1 -0.75 -0.0 Z" transform="translate(126.007 98.784) rotate(-270.0)"/><path d="M -0.75 0.0 A 0.75 0.75 0 1 1 0.75 0.0 L 0.75 -0.0 A 0.75 0.75 0 1 1 -0.75 -0.0 Z" transform="translate(126.007 102.384) rotate(-270.0)"/><path d="M -0.3 0.0 A 0.3 0.3 0 1 1 0.3 0.0 L 0.3 -0.0 A 0.3 0.3 0 1 1 -0.3 -0.0 Z" transform="translate(132.007 98.784) rotate(-270.0)"/><path d="M -0.3 0.0 A 0.3 0.3 0 1 1 0.3 0.0 L 0.3 -0.0 A 0.3 0.3 0 1 1 -0.3 -0.0 Z" transform="translate(132.007 102.384) rotate(-270.0)"/><path d="M -1.1 0.0 A 1.1 1.1 0 1 1 1.1 0.0 L 1.1 -0.0 A 1.1 1.1 0 1 1 -1.1 -0.0 Z" transform="translate(161.584 99.06) rotate(-90.0)"/><path d="M -0.425 0.0 A 0.425 0.425 0 1 1 0.425 0.0 L 0.425 -0.0 A 0.425 0.425 0 1 1 -0.425 -0.0 Z" transform="translate(151.384 99.06) rotate(-90.0)"/><path d="M -1.1 0.0 A 1.1 1.1 0 1 1 1.1 0.0 L 1.1 -0.0 A 1.1 1.1 0 1 1 -1.1 -0.0 Z" transform="translate(161.584 106.172) rotate(-90.0)"/><path d="M -0.425 0.0 A 0.425 0.425 0 1 1 0.425 0.0 L 0.425 -0.0 A 0.425 0.425 0 1 1 -0.425 -0.0 Z" transform="translate(151.384 106.172) rotate(-90.0)"/><path d="M -1.1 0.0 A 1.1 1.1 0 1 1 1.1 0.0 L 1.1 -0.0 A 1.1 1.1 0 1 1 -1.1 -0.0 Z" transform="translate(161.584 102.616) rotate(-90.0)"/><path d="M -0.425 0.0 A 0.425 0.425 0 1 1 0.425 0.0 L 0.425 -0.0 A 0.425 0.425 0 1 1 -0.425 -0.0 Z" transform="translate(151.384 102.616) rotate(-90.0)"/></g></g></g></svg>