<!DOCTYPE svg PUBLIC "-//W3C//DTD SVG 1.1//EN" "http://www.w3.org/Graphics/SVG/1.1/DTD/svg11.dtd">
<svg xmlns="http://www.w3.org/2000/svg" version="1.1" width="38.2mm" height="26.134999mm" viewBox="-119.43 50.115 38.2 26.134999999999998">
            <title>Picture generated by PcbDraw </title>
            <desc>Picture generated by PcbDraw</desc>
        <defs><clipPath id="cut-off"><path d="M81.2800 76.2000 L81.2800 50.1650 M 119.38 50.165 L 119.38 76.2 L 81.28 76.2 L 81.28 50.165 L 119.38 50.165 " style="fill-rule: evenodd;"/></clipPath><mask id="pads-mask"><g style="fill:#ffffff; fill-opacity:0.0;  stroke:#ffffff; stroke-width:0.0000; stroke-opacity:1;  stroke-linecap:round; stroke-linejoin:round;">
<g style="fill:#ffffff; fill-opacity:1.0000;  stroke:#ffffff; stroke-width:0.0000; stroke-opacity:1;  stroke-linecap:round; stroke-linejoin:round;">
<circle cx="114.3000" cy="63.5000" r="1.8000"/> 
</g>
<g style="fill:#ffffff; fill-opacity:1.0000;  stroke:#ffffff; stroke-width:0.0000; stroke-opacity:1;  stroke-linecap:round; stroke-linejoin:round;">
<circle cx="92.0750" cy="53.3400" r="0.7500"/> 
</g>
<g style="fill:#ffffff; fill-opacity:1.0000;  stroke:#ffffff; stroke-width:0.0000; stroke-opacity:1;  stroke-linecap:round; stroke-linejoin:round;">
<path style="fill:#ffffff; fill-opacity:1.0000;  stroke:#ffffff; stroke-width:0.0000; stroke-opacity:1;  stroke-linecap:round; stroke-linejoin:round;fill-rule:evenodd;" d="M 92.8750,59.8900 92.8560,59.9857 92.8018,60.0668 92.7207,60.1210 92.6250,60.1400 91.5250,60.1400 91.4293,60.1210 91.3482,60.0668 91.2940,59.9857 91.2750,59.8900 91.2750,58.7900 91.2940,58.6943 91.3482,58.6132 91.4293,58.5590 91.5250,58.5400 92.6250,58.5400 92.7207,58.5590 92.8018,58.6132 92.8560,58.6943 92.8750,58.7900 Z"/> 
</g>
<g style="fill:#ffffff; fill-opacity:1.0000;  stroke:#ffffff; stroke-width:0.0000; stroke-opacity:1;  stroke-linecap:round; stroke-linejoin:round;">
<circle cx="99.0600" cy="53.3400" r="0.7500"/> 
</g>
<g style="fill:#ffffff; fill-opacity:1.0000;  stroke:#ffffff; stroke-width:0.0000; stroke-opacity:1;  stroke-linecap:round; stroke-linejoin:round;">
<path style="fill:#ffffff; fill-opacity:1.0000;  stroke:#ffffff; stroke-width:0.0000; stroke-opacity:1;  stroke-linecap:round; stroke-linejoin:round;fill-rule:evenodd;" d="M 99.8600,59.8900 99.8410,59.9857 99.7868,60.0668 99.7057,60.1210 99.6100,60.1400 98.5100,60.1400 98.4143,60.1210 98.3332,60.0668 98.2790,59.9857 98.2600,59.8900 98.2600,58.7900 98.2790,58.6943 98.3332,58.6132 98.4143,58.5590 98.5100,58.5400 99.6100,58.5400 99.7057,58.5590 99.7868,58.6132 99.8410,58.6943 99.8600,58.7900 Z"/> 
</g>
<g style="fill:#ffffff; fill-opacity:1.0000;  stroke:#ffffff; stroke-width:0.0000; stroke-opacity:1;  stroke-linecap:round; stroke-linejoin:round;">
<circle cx="109.2200" cy="53.3400" r="0.7500"/> 
</g>
<g style="fill:#ffffff; fill-opacity:1.0000;  stroke:#ffffff; stroke-width:0.0000; stroke-opacity:1;  stroke-linecap:round; stroke-linejoin:round;">
<path style="fill:#ffffff; fill-opacity:1.0000;  stroke:#ffffff; stroke-width:0.0000; stroke-opacity:1;  stroke-linecap:round; stroke-linejoin:round;fill-rule:evenodd;" d="M 110.0200,59.8900 110.0010,59.9857 109.9468,60.0668 109.8657,60.1210 109.7700,60.1400 108.6700,60.1400 108.5743,60.1210 108.4932,60.0668 108.4390,59.9857 108.4200,59.8900 108.4200,58.7900 108.4390,58.6943 108.4932,58.6132 108.5743,58.5590 108.6700,58.5400 109.7700,58.5400 109.8657,58.5590 109.9468,58.6132 110.0010,58.6943 110.0200,58.7900 Z"/> 
</g>
<g style="fill:#ffffff; fill-opacity:1.0000;  stroke:#ffffff; stroke-width:0.0000; stroke-opacity:1;  stroke-linecap:round; stroke-linejoin:round;">
<circle cx="104.1400" cy="53.3400" r="0.7500"/> 
</g>
<g style="fill:#ffffff; fill-opacity:1.0000;  stroke:#ffffff; stroke-width:0.0000; stroke-opacity:1;  stroke-linecap:round; stroke-linejoin:round;">
<path style="fill:#ffffff; fill-opacity:1.0000;  stroke:#ffffff; stroke-width:0.0000; stroke-opacity:1;  stroke-linecap:round; stroke-linejoin:round;fill-rule:evenodd;" d="M 104.9400,59.8900 104.9210,59.9857 104.8668,60.0668 104.7857,60.1210 104.6900,60.1400 103.5900,60.1400 103.4943,60.1210 103.4132,60.0668 103.3590,59.9857 103.3400,59.8900 103.3400,58.7900 103.3590,58.6943 103.4132,58.6132 103.4943,58.5590 103.5900,58.5400 104.6900,58.5400 104.7857,58.5590 104.8668,58.6132 104.9210,58.6943 104.9400,58.7900 Z"/> 
</g>
<g style="fill:#ffffff; fill-opacity:1.0000;  stroke:#ffffff; stroke-width:0.0000; stroke-opacity:1;  stroke-linecap:round; stroke-linejoin:round;">
<circle cx="86.3600" cy="63.5000" r="1.8000"/> 
</g>
</g> 
</mask><mask id="pads-mask-silkscreen"><rect x="81.23" y="50.115" width="38.2" height="26.135" fill="white"/><g style="fill:#000000; fill-opacity:0.0;  stroke:#000000; stroke-width:0.0000; stroke-opacity:1;  stroke-linecap:round; stroke-linejoin:round;">
<g style="fill:#000000; fill-opacity:1.0000;  stroke:#000000; stroke-width:0.0000; stroke-opacity:1;  stroke-linecap:round; stroke-linejoin:round;">
<circle cx="114.3000" cy="63.5000" r="1.8000"/> 
</g>
<g style="fill:#000000; fill-opacity:1.0000;  stroke:#000000; stroke-width:0.0000; stroke-opacity:1;  stroke-linecap:round; stroke-linejoin:round;">
<circle cx="92.0750" cy="53.3400" r="0.7500"/> 
</g>
<g style="fill:#000000; fill-opacity:1.0000;  stroke:#000000; stroke-width:0.0000; stroke-opacity:1;  stroke-linecap:round; stroke-linejoin:round;">
<path style="fill:#000000; fill-opacity:1.0000;  stroke:#000000; stroke-width:0.0000; stroke-opacity:1;  stroke-linecap:round; stroke-linejoin:round;fill-rule:evenodd;" d="M 92.8750,59.8900 92.8560,59.9857 92.8018,60.0668 92.7207,60.1210 92.6250,60.1400 91.5250,60.1400 91.4293,60.1210 91.3482,60.0668 91.2940,59.9857 91.2750,59.8900 91.2750,58.7900 91.2940,58.6943 91.3482,58.6132 91.4293,58.5590 91.5250,58.5400 92.6250,58.5400 92.7207,58.5590 92.8018,58.6132 92.8560,58.6943 92.8750,58.7900 Z"/> 
</g>
<g style="fill:#000000; fill-opacity:1.0000;  stroke:#000000; stroke-width:0.0000; stroke-opacity:1;  stroke-linecap:round; stroke-linejoin:round;">
<circle cx="99.0600" cy="53.3400" r="0.7500"/> 
</g>
<g style="fill:#000000; fill-opacity:1.0000;  stroke:#000000; stroke-width:0.0000; stroke-opacity:1;  stroke-linecap:round; stroke-linejoin:round;">
<path style="fill:#000000; fill-opacity:1.0000;  stroke:#000000; stroke-width:0.0000; stroke-opacity:1;  stroke-linecap:round; stroke-linejoin:round;fill-rule:evenodd;" d="M 99.8600,59.8900 99.8410,59.9857 99.7868,60.0668 99.7057,60.1210 99.6100,60.1400 98.5100,60.1400 98.4143,60.1210 98.3332,60.0668 98.2790,59.9857 98.2600,59.8900 98.2600,58.7900 98.2790,58.6943 98.3332,58.6132 98.4143,58.5590 98.5100,58.5400 99.6100,58.5400 99.7057,58.5590 99.7868,58.6132 99.8410,58.6943 99.8600,58.7900 Z"/> 
</g>
<g style="fill:#000000; fill-opacity:1.0000;  stroke:#000000; stroke-width:0.0000; stroke-opacity:1;  stroke-linecap:round; stroke-linejoin:round;">
<circle cx="109.2200" cy="53.3400" r="0.7500"/> 
</g>
<g style="fill:#000000; fill-opacity:1.0000;  stroke:#000000; stroke-width:0.0000; stroke-opacity:1;  stroke-linecap:round; stroke-linejoin:round;">
<path style="fill:#000000; fill-opacity:1.0000;  stroke:#000000; stroke-width:0.0000; stroke-opacity:1;  stroke-linecap:round; stroke-linejoin:round;fill-rule:evenodd;" d="M 110.0200,59.8900 110.0010,59.9857 109.9468,60.0668 109.8657,60.1210 109.7700,60.1400 108.6700,60.1400 108.5743,60.1210 108.4932,60.0668 108.4390,59.9857 108.4200,59.8900 108.4200,58.7900 108.4390,58.6943 108.4932,58.6132 108.5743,58.5590 108.6700,58.5400 109.7700,58.5400 109.8657,58.5590 109.9468,58.6132 110.0010,58.6943 110.0200,58.7900 Z"/> 
</g>
<g style="fill:#000000; fill-opacity:1.0000;  stroke:#000000; stroke-width:0.0000; stroke-opacity:1;  stroke-linecap:round; stroke-linejoin:round;">
<circle cx="104.1400" cy="53.3400" r="0.7500"/> 
</g>
<g style="fill:#000000; fill-opacity:1.0000;  stroke:#000000; stroke-width:0.0000; stroke-opacity:1;  stroke-linecap:round; stroke-linejoin:round;">
<path style="fill:#000000; fill-opacity:1.0000;  stroke:#000000; stroke-width:0.0000; stroke-opacity:1;  stroke-linecap:round; stroke-linejoin:round;fill-rule:evenodd;" d="M 104.9400,59.8900 104.9210,59.9857 104.8668,60.0668 104.7857,60.1210 104.6900,60.1400 103.5900,60.1400 103.4943,60.1210 103.4132,60.0668 103.3590,59.9857 103.3400,59.8900 103.3400,58.7900 103.3590,58.6943 103.4132,58.6132 103.4943,58.5590 103.5900,58.5400 104.6900,58.5400 104.7857,58.5590 104.8668,58.6132 104.9210,58.6943 104.9400,58.7900 Z"/> 
</g>
<g style="fill:#000000; fill-opacity:1.0000;  stroke:#000000; stroke-width:0.0000; stroke-opacity:1;  stroke-linecap:round; stroke-linejoin:round;">
<circle cx="86.3600" cy="63.5000" r="1.8000"/> 
</g>
</g> 
</mask><mask id="hole-mask"><g><rect x="81.23" y="50.115" fill="white" width="38.2" height="26.135"/><polyline stroke-linecap="round" stroke="black" stroke-width="3.2" points="-0.0 0 0.0 0" transform="translate(114.3 63.5) rotate(-0.0)"/><polyline stroke-linecap="round" stroke="black" stroke-width="1.5" points="-0.0 0 0.0 0" transform="translate(92.075 53.34) rotate(-180.0)"/><polyline stroke-linecap="round" stroke="black" stroke-width="0.6" points="-0.0 0 0.0 0" transform="translate(92.075 59.34) rotate(-180.0)"/><polyline stroke-linecap="round" stroke="black" stroke-width="1.5" points="-0.0 0 0.0 0" transform="translate(99.06 53.34) rotate(-180.0)"/><polyline stroke-linecap="round" stroke="black" stroke-width="0.6" points="-0.0 0 0.0 0" transform="translate(99.06 59.34) rotate(-180.0)"/><polyline stroke-linecap="round" stroke="black" stroke-width="1.5" points="-0.0 0 0.0 0" transform="translate(109.22 53.34) rotate(-180.0)"/><polyline stroke-linecap="round" stroke="black" stroke-width="0.6" points="-0.0 0 0.0 0" transform="translate(109.22 59.34) rotate(-180.0)"/><polyline stroke-linecap="round" stroke="black" stroke-width="1.5" points="-0.0 0 0.0 0" transform="translate(104.14 53.34) rotate(-180.0)"/><polyline stroke-linecap="round" stroke="black" stroke-width="0.6" points="-0.0 0 0.0 0" transform="translate(104.14 59.34) rotate(-180.0)"/><polyline stroke-linecap="round" stroke="black" stroke-width="3.2" points="-0.0 0 0.0 0" transform="translate(86.36 63.5) rotate(-0.0)"/></g></mask></defs><g transform="scale(-1,1)" id="boardContainer"><g id="substrate" clip-path="url(#cut-off)" mask="url(#hole-mask)"><g id="substrate-board" style="fill:#208b47; stroke:#208b47;"><path d="M81.2800 76.2000 L81.2800 50.1650 M 119.38 50.165 L 119.38 76.2 L 81.28 76.2 L 81.28 50.165 L 119.38 50.165 " style="fill-rule: evenodd;"/><g style="fill-opacity: 0.0;stroke-width: 0.1000;stroke-opacity: 1;stroke-linecap: round;stroke-linejoin: round">
<path style="fill-opacity: 0.0;stroke-width: 0.1000;stroke-opacity: 1;stroke-linecap: round;stroke-linejoin: round" d="M 81.2800,50.1650 119.3800,50.1650 119.3800,76.2000 81.2800,76.2000 Z"/> 
</g> 
</g><g id="substrate-clad" style="fill:#332B16; stroke:#332B16;"><g style="fill-opacity: 0.0;stroke-width: 0.0000;stroke-opacity: 1;stroke-linecap: round;stroke-linejoin: round">
<g style="fill-opacity: 1.0000;stroke-width: 0.0000;stroke-opacity: 1;stroke-linecap: round;stroke-linejoin: round">
<circle cx="114.3000" cy="63.5000" r="1.8000"/> 
</g>
<g style="fill-opacity: 1.0000;stroke-width: 0.0000;stroke-opacity: 1;stroke-linecap: round;stroke-linejoin: round">
<circle cx="92.0750" cy="53.3400" r="0.7500"/> 
</g>
<g style="fill-opacity: 1.0000;stroke-width: 0.0000;stroke-opacity: 1;stroke-linecap: round;stroke-linejoin: round">
<path style="fill-opacity: 1.0000;stroke-width: 0.0000;stroke-opacity: 1;stroke-linecap: round;stroke-linejoin: round;fill-rule: evenodd" d="M 92.8750,59.8900 92.8560,59.9857 92.8018,60.0668 92.7207,60.1210 92.6250,60.1400 91.5250,60.1400 91.4293,60.1210 91.3482,60.0668 91.2940,59.9857 91.2750,59.8900 91.2750,58.7900 91.2940,58.6943 91.3482,58.6132 91.4293,58.5590 91.5250,58.5400 92.6250,58.5400 92.7207,58.5590 92.8018,58.6132 92.8560,58.6943 92.8750,58.7900 Z"/> 
</g>
<g style="fill-opacity: 1.0000;stroke-width: 0.0000;stroke-opacity: 1;stroke-linecap: round;stroke-linejoin: round">
<circle cx="99.0600" cy="53.3400" r="0.7500"/> 
</g>
<g style="fill-opacity: 1.0000;stroke-width: 0.0000;stroke-opacity: 1;stroke-linecap: round;stroke-linejoin: round">
<path style="fill-opacity: 1.0000;stroke-width: 0.0000;stroke-opacity: 1;stroke-linecap: round;stroke-linejoin: round;fill-rule: evenodd" d="M 99.8600,59.8900 99.8410,59.9857 99.7868,60.0668 99.7057,60.1210 99.6100,60.1400 98.5100,60.1400 98.4143,60.1210 98.3332,60.0668 98.2790,59.9857 98.2600,59.8900 98.2600,58.7900 98.2790,58.6943 98.3332,58.6132 98.4143,58.5590 98.5100,58.5400 99.6100,58.5400 99.7057,58.5590 99.7868,58.6132 99.8410,58.6943 99.8600,58.7900 Z"/> 
</g>
<g style="fill-opacity: 1.0000;stroke-width: 0.0000;stroke-opacity: 1;stroke-linecap: round;stroke-linejoin: round">
<circle cx="109.2200" cy="53.3400" r="0.7500"/> 
</g>
<g style="fill-opacity: 1.0000;stroke-width: 0.0000;stroke-opacity: 1;stroke-linecap: round;stroke-linejoin: round">
<path style="fill-opacity: 1.0000;stroke-width: 0.0000;stroke-opacity: 1;stroke-linecap: round;stroke-linejoin: round;fill-rule: evenodd" d="M 110.0200,59.8900 110.0010,59.9857 109.9468,60.0668 109.8657,60.1210 109.7700,60.1400 108.6700,60.1400 108.5743,60.1210 108.4932,60.0668 108.4390,59.9857 108.4200,59.8900 108.4200,58.7900 108.4390,58.6943 108.4932,58.6132 108.5743,58.5590 108.6700,58.5400 109.7700,58.5400 109.8657,58.5590 109.9468,58.6132 110.0010,58.6943 110.0200,58.7900 Z"/> 
</g>
<g style="fill-opacity: 1.0000;stroke-width: 0.0000;stroke-opacity: 1;stroke-linecap: round;stroke-linejoin: round">
<circle cx="104.1400" cy="53.3400" r="0.7500"/> 
</g>
<g style="fill-opacity: 1.0000;stroke-width: 0.0000;stroke-opacity: 1;stroke-linecap: round;stroke-linejoin: round">
<path style="fill-opacity: 1.0000;stroke-width: 0.0000;stroke-opacity: 1;stroke-linecap: round;stroke-linejoin: round;fill-rule: evenodd" d="M 104.9400,59.8900 104.9210,59.9857 104.8668,60.0668 104.7857,60.1210 104.6900,60.1400 103.5900,60.1400 103.4943,60.1210 103.4132,60.0668 103.3590,59.9857 103.3400,59.8900 103.3400,58.7900 103.3590,58.6943 103.4132,58.6132 103.4943,58.5590 103.5900,58.5400 104.6900,58.5400 104.7857,58.5590 104.8668,58.6132 104.9210,58.6943 104.9400,58.7900 Z"/> 
</g>
<g style="fill-opacity: 1.0000;stroke-width: 0.0000;stroke-opacity: 1;stroke-linecap: round;stroke-linejoin: round">
<circle cx="86.3600" cy="63.5000" r="1.8000"/> 
</g>
</g> 
</g><g id="substrate-copper" style="fill:#285e3a; stroke:#285e3a;"><g style="fill-opacity: 0.0;stroke-width: 0.0000;stroke-opacity: 1;stroke-linecap: round;stroke-linejoin: round">
<g style="fill-opacity: 1.0000;stroke-width: 0.0000;stroke-opacity: 1;stroke-linecap: round;stroke-linejoin: round">
<circle cx="114.3000" cy="63.5000" r="1.8000"/> 
</g>
<g style="fill-opacity: 1.0000;stroke-width: 0.0000;stroke-opacity: 1;stroke-linecap: round;stroke-linejoin: round">
<path style="fill-opacity: 1.0000;stroke-width: 0.0000;stroke-opacity: 1;stroke-linecap: round;stroke-linejoin: round;fill-rule: evenodd" d="M 92.8750,59.8900 92.8560,59.9857 92.8018,60.0668 92.7207,60.1210 92.6250,60.1400 91.5250,60.1400 91.4293,60.1210 91.3482,60.0668 91.2940,59.9857 91.2750,59.8900 91.2750,58.7900 91.2940,58.6943 91.3482,58.6132 91.4293,58.5590 91.5250,58.5400 92.6250,58.5400 92.7207,58.5590 92.8018,58.6132 92.8560,58.6943 92.8750,58.7900 Z"/> 
</g>
<g style="fill-opacity: 1.0000;stroke-width: 0.0000;stroke-opacity: 1;stroke-linecap: round;stroke-linejoin: round">
<path style="fill-opacity: 1.0000;stroke-width: 0.0000;stroke-opacity: 1;stroke-linecap: round;stroke-linejoin: round;fill-rule: evenodd" d="M 99.8600,59.8900 99.8410,59.9857 99.7868,60.0668 99.7057,60.1210 99.6100,60.1400 98.5100,60.1400 98.4143,60.1210 98.3332,60.0668 98.2790,59.9857 98.2600,59.8900 98.2600,58.7900 98.2790,58.6943 98.3332,58.6132 98.4143,58.5590 98.5100,58.5400 99.6100,58.5400 99.7057,58.5590 99.7868,58.6132 99.8410,58.6943 99.8600,58.7900 Z"/> 
</g>
<g style="fill-opacity: 1.0000;stroke-width: 0.0000;stroke-opacity: 1;stroke-linecap: round;stroke-linejoin: round">
<path style="fill-opacity: 1.0000;stroke-width: 0.0000;stroke-opacity: 1;stroke-linecap: round;stroke-linejoin: round;fill-rule: evenodd" d="M 110.0200,59.8900 110.0010,59.9857 109.9468,60.0668 109.8657,60.1210 109.7700,60.1400 108.6700,60.1400 108.5743,60.1210 108.4932,60.0668 108.4390,59.9857 108.4200,59.8900 108.4200,58.7900 108.4390,58.6943 108.4932,58.6132 108.5743,58.5590 108.6700,58.5400 109.7700,58.5400 109.8657,58.5590 109.9468,58.6132 110.0010,58.6943 110.0200,58.7900 Z"/> 
</g>
<g style="fill-opacity: 1.0000;stroke-width: 0.0000;stroke-opacity: 1;stroke-linecap: round;stroke-linejoin: round">
<path style="fill-opacity: 1.0000;stroke-width: 0.0000;stroke-opacity: 1;stroke-linecap: round;stroke-linejoin: round;fill-rule: evenodd" d="M 104.9400,59.8900 104.9210,59.9857 104.8668,60.0668 104.7857,60.1210 104.6900,60.1400 103.5900,60.1400 103.4943,60.1210 103.4132,60.0668 103.3590,59.9857 103.3400,59.8900 103.3400,58.7900 103.3590,58.6943 103.4132,58.6132 103.4943,58.5590 103.5900,58.5400 104.6900,58.5400 104.7857,58.5590 104.8668,58.6132 104.9210,58.6943 104.9400,58.7900 Z"/> 
</g>
<g style="fill-opacity: 1.0000;stroke-width: 0.0000;stroke-opacity: 1;stroke-linecap: round;stroke-linejoin: round">
<circle cx="86.3600" cy="63.5000" r="1.8000"/> 
</g>
</g> 
</g><g id="substrate-pads" style="fill:#8b898c; stroke:#8b898c;" mask="url(#pads-mask)"><g style="fill-opacity: 0.0;stroke-width: 0.0000;stroke-opacity: 1;stroke-linecap: round;stroke-linejoin: round">
<g style="fill-opacity: 1.0000;stroke-width: 0.0000;stroke-opacity: 1;stroke-linecap: round;stroke-linejoin: round">
<circle cx="114.3000" cy="63.5000" r="1.8000"/> 
</g>
<g style="fill-opacity: 1.0000;stroke-width: 0.0000;stroke-opacity: 1;stroke-linecap: round;stroke-linejoin: round">
<path style="fill-opacity: 1.0000;stroke-width: 0.0000;stroke-opacity: 1;stroke-linecap: round;stroke-linejoin: round;fill-rule: evenodd" d="M 92.8750,59.8900 92.8560,59.9857 92.8018,60.0668 92.7207,60.1210 92.6250,60.1400 91.5250,60.1400 91.4293,60.1210 91.3482,60.0668 91.2940,59.9857 91.2750,59.8900 91.2750,58.7900 91.2940,58.6943 91.3482,58.6132 91.4293,58.5590 91.5250,58.5400 92.6250,58.5400 92.7207,58.5590 92.8018,58.6132 92.8560,58.6943 92.8750,58.7900 Z"/> 
</g>
<g style="fill-opacity: 1.0000;stroke-width: 0.0000;stroke-opacity: 1;stroke-linecap: round;stroke-linejoin: round">
<path style="fill-opacity: 1.0000;stroke-width: 0.0000;stroke-opacity: 1;stroke-linecap: round;stroke-linejoin: round;fill-rule: evenodd" d="M 99.8600,59.8900 99.8410,59.9857 99.7868,60.0668 99.7057,60.1210 99.6100,60.1400 98.5100,60.1400 98.4143,60.1210 98.3332,60.0668 98.2790,59.9857 98.2600,59.8900 98.2600,58.7900 98.2790,58.6943 98.3332,58.6132 98.4143,58.5590 98.5100,58.5400 99.6100,58.5400 99.7057,58.5590 99.7868,58.6132 99.8410,58.6943 99.8600,58.7900 Z"/> 
</g>
<g style="fill-opacity: 1.0000;stroke-width: 0.0000;stroke-opacity: 1;stroke-linecap: round;stroke-linejoin: round">
<path style="fill-opacity: 1.0000;stroke-width: 0.0000;stroke-opacity: 1;stroke-linecap: round;stroke-linejoin: round;fill-rule: evenodd" d="M 110.0200,59.8900 110.0010,59.9857 109.9468,60.0668 109.8657,60.1210 109.7700,60.1400 108.6700,60.1400 108.5743,60.1210 108.4932,60.0668 108.4390,59.9857 108.4200,59.8900 108.4200,58.7900 108.4390,58.6943 108.4932,58.6132 108.5743,58.5590 108.6700,58.5400 109.7700,58.5400 109.8657,58.5590 109.9468,58.6132 110.0010,58.6943 110.0200,58.7900 Z"/> 
</g>
<g style="fill-opacity: 1.0000;stroke-width: 0.0000;stroke-opacity: 1;stroke-linecap: round;stroke-linejoin: round">
<path style="fill-opacity: 1.0000;stroke-width: 0.0000;stroke-opacity: 1;stroke-linecap: round;stroke-linejoin: round;fill-rule: evenodd" d="M 104.9400,59.8900 104.9210,59.9857 104.8668,60.0668 104.7857,60.1210 104.6900,60.1400 103.5900,60.1400 103.4943,60.1210 103.4132,60.0668 103.3590,59.9857 103.3400,59.8900 103.3400,58.7900 103.3590,58.6943 103.4132,58.6132 103.4943,58.5590 103.5900,58.5400 104.6900,58.5400 104.7857,58.5590 104.8668,58.6132 104.9210,58.6943 104.9400,58.7900 Z"/> 
</g>
<g style="fill-opacity: 1.0000;stroke-width: 0.0000;stroke-opacity: 1;stroke-linecap: round;stroke-linejoin: round">
<circle cx="86.3600" cy="63.5000" r="1.8000"/> 
</g>
</g> 
</g><g id="substrate-outline" style="fill:#000000; stroke:#000000; stroke-width: 0.15"><g style="fill-opacity: 0.0;stroke-opacity: 1;stroke-linecap: round;stroke-linejoin: round">
<path style="fill-opacity: 0.0;stroke-opacity: 1;stroke-linecap: round;stroke-linejoin: round" d="M 81.2800,50.1650 119.3800,50.1650 119.3800,76.2000 81.2800,76.2000 Z"/> 
</g> 
<path d="M -1.6 0.0 A 1.6 1.6 0 1 1 1.6 0.0 L 1.6 -0.0 A 1.6 1.6 0 1 1 -1.6 -0.0 Z" transform="translate(114.3 63.5) rotate(-0.0)"/><path d="M -0.75 0.0 A 0.75 0.75 0 1 1 0.75 0.0 L 0.75 -0.0 A 0.75 0.75 0 1 1 -0.75 -0.0 Z" transform="translate(92.075 53.34) rotate(-180.0)"/><path d="M -0.3 0.0 A 0.3 0.3 0 1 1 0.3 0.0 L 0.3 -0.0 A 0.3 0.3 0 1 1 -0.3 -0.0 Z" transform="translate(92.075 59.34) rotate(-180.0)"/><path d="M -0.75 0.0 A 0.75 0.75 0 1 1 0.75 0.0 L 0.75 -0.0 A 0.75 0.75 0 1 1 -0.75 -0.0 Z" transform="translate(99.06 53.34) rotate(-180.0)"/><path d="M -0.3 0.0 A 0.3 0.3 0 1 1 0.3 0.0 L 0.3 -0.0 A 0.3 0.3 0 1 1 -0.3 -0.0 Z" transform="translate(99.06 59.34) rotate(-180.0)"/><path d="M -0.75 0.0 A 0.75 0.75 0 1 1 0.75 0.0 L 0.75 -0.0 A 0.75 0.75 0 1 1 -0.75 -0.0 Z" transform="translate(109.22 53.34) rotate(-180.0)"/><path d="M -0.3 0.0 A 0.3 0.3 0 1 1 0.3 0.0 L 0.3 -0.0 A 0.3 0.3 0 1 1 -0.3 -0.0 Z" transform="translate(109.22 59.34) rotate(-180.0)"/><path d="M -0.75 0.0 A 0.75 0.75 0 1 1 0.75 0.0 L 0.75 -0.0 A 0.75 0.75 0 1 1 -0.75 -0.0 Z" transform="translate(104.14 53.34) rotate(-180.0)"/><path d="M -0.3 0.0 A 0.3 0.3 0 1 1 0.3 0.0 L 0.3 -0.0 A 0.3 0.3 0 1 1 -0.3 -0.0 Z" transform="translate(104.14 59.34) rotate(-180.0)"/><path d="M -1.6 0.0 A 1.6 1.6 0 1 1 1.6 0.0 L 1.6 -0.0 A 1.6 1.6 0 1 1 -1.6 -0.0 Z" transform="translate(86.36 63.5) rotate(-0.0)"/></g></g></g></svg>